
<svg width="25" height="25" viewBox="0 0 25 25" fill="none" xmlns="http://www.w3.org/2000/svg">
<path fill-rule="evenodd" clip-rule="evenodd" d="M25 12.5C25 19.1261 19.8846 24.5526 13.4089 25V21.9251C13.8981 21.8647 14.3556 21.7664 14.7786 21.6203C15.4856 21.3792 16.1009 21.0047 16.628 20.5002C17.1519 19.9956 17.5557 19.3609 17.8427 18.5897C18.1269 17.8218 18.2689 16.8984 18.2689 15.8226C18.2689 14.9499 18.1552 14.2168 17.9281 13.6203C17.6976 13.0237 17.3854 12.5286 16.9845 12.1383C16.587 11.7479 16.1483 11.4211 15.6686 11.1577C15.1889 10.8942 14.7219 10.6721 14.2642 10.4881C13.7403 10.2596 13.2386 10.0532 12.7589 9.86941C12.2792 9.68522 11.8974 9.43768 11.6134 9.12673C11.3261 8.81879 11.1842 8.44447 11.1842 8.00961C11.1842 7.75908 11.2189 7.53998 11.2884 7.35597C11.3578 7.17195 11.4429 7.01327 11.5439 6.8736C11.6479 6.73708 11.771 6.6325 11.9226 6.56581C12.0677 6.49599 12.2477 6.46107 12.4528 6.46107C12.7023 6.46107 12.9262 6.51816 13.1187 6.6325C13.3111 6.74669 13.4627 6.92125 13.5637 7.14963C13.6679 7.37814 13.7182 7.67649 13.7182 8.04469V8.55866C13.7182 8.69204 13.8257 8.79993 13.9582 8.79993H17.5366C17.6629 8.79993 17.7672 8.70461 17.7766 8.5777C17.7892 8.44134 17.7986 8.30482 17.8082 8.16515C17.8177 7.94623 17.824 7.74634 17.824 7.56232C17.824 6.82908 17.704 6.17546 17.4641 5.60107C17.2243 5.02671 16.8646 4.54434 16.388 4.15399C15.9083 3.76693 15.3497 3.478 14.7092 3.29399C14.3083 3.17982 13.8761 3.10039 13.4089 3.05919V0C19.8846 0.447616 25 5.87395 25 12.5Z" fill="#0E5D57"/>
<path fill-rule="evenodd" clip-rule="evenodd" d="M13.8158 16.7902C13.8158 17.1774 13.7681 17.5049 13.6755 17.766C13.5834 18.0274 13.4301 18.2319 13.21 18.38C12.9903 18.5279 12.7192 18.6002 12.3974 18.6002C12.0275 18.6002 11.7407 18.5152 11.5336 18.3453C11.3262 18.1753 11.1764 17.9423 11.0838 17.6464C10.9916 17.3506 10.9468 17.02 10.9468 16.6547V16.2803C10.9468 16.2266 10.9468 16.1637 10.9533 16.0945C10.9628 15.9559 10.8513 15.8363 10.711 15.8363H7.08651C6.96217 15.8363 6.85379 15.9277 6.84099 16.0505C6.83134 16.1606 6.82186 16.2708 6.81555 16.3809C6.80276 16.5636 6.79645 16.702 6.79645 16.7902C6.79645 17.5425 6.88237 18.2414 7.05792 18.89C7.22996 19.5384 7.51671 20.0924 7.92164 20.5456C8.32342 21.0021 8.88761 21.3609 9.61452 21.6223C10.1498 21.8143 10.8001 21.9371 11.5684 21.9875V25C5.09408 24.4868 0 19.1354 0 12.6097C0 6.08408 5.09408 0.732599 11.5684 0.219298V3.26971C11.1827 3.317 10.8066 3.3925 10.4433 3.4964C9.76412 3.68846 9.15838 4.00643 8.62945 4.45029C8.10018 4.89414 7.68908 5.45439 7.40217 6.12496C7.11511 6.7955 6.97164 7.5982 6.97164 8.52993C6.97164 9.43982 7.08002 10.2046 7.30011 10.8185C7.51671 11.4324 7.80711 11.9454 8.16401 12.3546C8.5209 12.764 8.92268 13.1007 9.37215 13.362C9.81831 13.6202 10.2615 13.8532 10.695 14.0577C10.7016 14.061 10.7078 14.061 10.711 14.0641C11.2402 14.2686 11.7376 14.4827 12.206 14.7094C12.6811 14.9361 13.0668 15.2099 13.3665 15.5279C13.6662 15.8489 13.8158 16.2677 13.8158 16.7902Z" fill="#0E5D57"/>
</svg>