<svg width="25" height="25" viewBox="0 0 25 25" fill="none" xmlns="http://www.w3.org/2000/svg">
<path fill-rule="evenodd" clip-rule="evenodd" d="M25.0002 12.4999C25.0002 19.4036 19.4036 25 12.5002 25C7.97363 25 4.01058 22.5941 1.81713 18.9953C2.07016 19.0522 2.33937 19.0808 2.61782 19.0808C8.06525 19.0839 13.5163 19.0808 18.9669 19.0808C22.4048 19.0808 24.2085 16.7255 24.2085 14.4098C24.2085 12.4545 23.4966 11.0913 21.7841 10.379C21.3916 10.2176 20.9959 10.1227 20.594 10.0753C20.2679 6.53004 17.1943 3.75097 13.4528 3.75097C10.0311 3.75097 7.1665 6.08058 6.45428 9.19211C5.35286 9.45173 4.43463 10.0057 3.70672 10.8602C3.16236 11.4965 2.80451 12.2181 2.61139 13.0475C2.48165 13.0569 2.37091 13.0602 2.25702 13.0697C1.38649 13.1297 0.626892 13.5477 0.110919 14.1554C0.0381285 13.614 0 13.0602 0 12.4999C0 5.5963 5.59648 0 12.5002 0C19.4036 0 25.0002 5.5963 25.0002 12.4999Z" fill="#59223F"/>
<path fill-rule="evenodd" clip-rule="evenodd" d="M14.1828 14.0366C14.512 12.0525 14.1385 10.5434 12.9022 9.57207C11.7689 8.68177 9.7064 8.50599 8.13427 9.10777C10.4513 9.07513 13.4486 10.704 14.1828 14.0366Z" fill="#59223F"/>
</svg>
